#tb 0: 1/25
#media_type 0: video
#codec_id 0: rawvideo
#dimensions 0: 416x240
#sar 0: 0/1
0,          0,          0,        1,   149760, 0x8edb27d7
0,          1,          1,        1,   149760, 0xf11a32ce
0,          2,          2,        1,   149760, 0x0802237c
0,          3,          3,        1,   149760, 0x366621a7
0,          4,          4,        1,   149760, 0x89aacefd
0,          5,          5,        1,   149760, 0xb3837d16
0,          6,          6,        1,   149760, 0x5f822072
0,          7,          7,        1,   149760, 0x24cb9377
